Coordinates
version=1
nRows=9
nColumns=24
inDegrees=yes

Units are S.I. units (second, meters, Newtons, ...)
Angles are in degrees.

endheader
time	pelvis_tilt	pelvis_list	pelvis_rotation	pelvis_tx	pelvis_ty	pelvis_tz	hip_flexion_r	hip_adduction_r	hip_rotation_r	knee_angle_r	ankle_angle_r	subtalar_angle_r	mtp_angle_r	hip_flexion_l	hip_adduction_l	hip_rotation_l	knee_angle_l	ankle_angle_l	subtalar_angle_l	mtp_angle_l	lumbar_extension	lumbar_bending	lumbar_rotation
      4.35000000	    -10.62973346	      5.75645928	     -2.19601361	     -0.65798754	     -0.01919642	     -0.36359963	     28.91482220	     -9.28868417	     -1.06269618	    -61.66694887	    -11.20537552	      7.48578914	     32.68956695	     19.36533156	     10.63427812	      7.31991181	    -18.62480662	      5.79847474	      2.88927073	     -9.68003897	      7.07444869	     -7.68044760	     -5.11393651
      4.35500000	    -10.60988140	      5.43522402	     -2.06830305	     -0.65178992	     -0.01796018	     -0.36414368	     29.46985948	     -8.93646245	     -1.40078817	    -60.92905761	    -10.43710946	      7.71735933	     32.36417912	     18.51174634	     10.39193112	      7.84177209	    -17.99022569	      5.87837168	      2.69401509	     -9.90394641	      7.04796761	     -7.33972143	     -5.30809027
      4.36000000	    -10.61255032	      5.10341177	     -1.93736261	     -0.64566096	     -0.01684242	     -0.36468628	     30.03070499	     -8.56293295	     -1.72523209	    -60.13128432	     -9.68890999	      7.88581538	     32.01913090	     17.71654728	     10.12583771	      8.29996802	    -17.40146681	      5.97970576	      2.55041785	    -10.09265102	      7.03629867	     -6.98705516	     -5.57549525
      4.36500000	    -10.61867511	      4.77786593	     -1.80784555	     -0.63953219	     -0.01581758	     -0.36521223	     30.57909253	     -8.20045251	     -2.06685850	    -59.28401215	     -8.97540452	      7.98515688	     31.58093030	     16.93282776	      9.85676750	      8.75505971	    -16.82037102	      6.08871061	      2.40793959	    -10.28676365	      7.03114224	     -6.64198476	     -5.80922955
      4.37000000	    -10.62817482	      4.46881982	     -1.67344402	     -0.63342453	     -0.01489006	     -0.36567530	     31.11587071	     -7.85541380	     -2.42231088	    -58.39242696	     -8.27822485	      8.02980300	     31.03112025	     16.16353346	      9.59329269	      9.19902455	    -16.24867065	      6.20167139	      2.27140171	    -10.49618014	      7.03016638	     -6.33331769	     -6.03070672
      4.37500000	    -10.65545219	      4.16335499	     -1.53787665	     -0.62734088	     -0.01408331	     -0.36616392	     31.65231134	     -7.50891307	     -2.76041069	    -57.44204767	     -7.62299999	      8.00001506	     30.49267559	     15.43711045	      9.32859687	      9.60061707	    -15.70933468	      6.32502325	      2.15739734	    -10.68043612	      7.04460103	     -6.01372552	     -6.27038164
      4.38000000	    -10.67798587	      3.88092592	     -1.40549351	     -0.62126829	     -0.01338732	     -0.36659507	     32.17084505	     -7.18186231	     -3.09230430	    -56.44987303	     -6.98418217	      7.91900608	     29.88477401	     14.71346683	      9.07861782	     10.00508902	    -15.17808428	      6.46525380	      2.03105123	    -10.87043921	      7.06049427	     -5.73508469	     -6.49817281
      4.38500000	    -10.70146396	      3.62688184	     -1.28142358	     -0.61518069	     -0.01279162	     -0.36700300	     32.67672964	     -6.87614453	     -3.39146665	    -55.42284109	     -6.34186554	      7.86545153	     29.13414884	     13.99088016	      8.85006070	     10.41160500	    -14.64214165	      6.60533640	      1.89687279	    -11.10211801	      7.08115819	     -5.48309412	     -6.68677228
      4.39000000	    -10.74984488	      3.35701268	     -1.13422759	     -0.60914465	     -0.01233784	     -0.36740062	     33.17838343	     -6.55663111	     -3.71020061	    -54.31624431	     -5.77412369	      7.65451573	     28.56996229	     13.33866031	      8.60483870	     10.75624380	    -14.17599653	      6.76650467	      1.78718271	    -11.25285366	      7.11830076	     -5.22603865	     -6.94728835
